# xmcd CD database file
#
# Track frame offsets:
#	150
#	15096
#	29821
#	42566
#	61961
#	78705
#
# Disc length: 1247 seconds
#
# Revision: 0
# Processed by: cddbd v1.5.2PL0 Copyright (c) Steve Scherf et al.
# Submitted via: CDex 1.70beta2
#
DISCID=4804dd06
DTITLE=Peter Pratt - Rope Around My Heart
DYEAR=1900
DGENRE=Country
TTITLE0=Wild Eyed Steer
TTITLE1=Rope Around My Heart
TTITLE2=Thats A Good Idea
TTITLE3=Last Eight for Billy
TTITLE4=Southern Crossed My Heart
TTITLE5=Rusty Spurs and a Dusty Saddle
EXTD=
EXTT0=
EXTT1=
EXTT2=
EXTT3=
EXTT4=
EXTT5=
PLAYORDER=
